<mxfile host="app.diagrams.net" agent="Mozilla/5.0 (Windows NT 10.0; Win64; x64) AppleWebKit/537.36 (KHTML, like Gecko) Chrome/133.0.0.0 Safari/537.36" version="26.0.11">
  <diagram name="PÃ¡gina-1" id="6_REZfdzY3oVV9gN_PCt">
    <mxGraphModel dx="791" dy="2024" grid="1" gridSize="10" guides="1" tooltips="1" connect="1" arrows="1" fold="1" page="1" pageScale="1" pageWidth="1169" pageHeight="827" math="0" shadow="0">
      <root>
        <mxCell id="0" />
        <mxCell id="1" parent="0" />
        <mxCell id="5UwkUlyVJq9PyRfIacwS-1" value="USER" style="rounded=0;whiteSpace=wrap;html=1;" vertex="1" parent="1">
          <mxGeometry x="200" y="115" width="120" height="60" as="geometry" />
        </mxCell>
        <mxCell id="5UwkUlyVJq9PyRfIacwS-2" value="PRODUCT" style="rounded=0;whiteSpace=wrap;html=1;" vertex="1" parent="1">
          <mxGeometry x="520" y="330" width="120" height="60" as="geometry" />
        </mxCell>
        <mxCell id="5UwkUlyVJq9PyRfIacwS-3" value="SHOP" style="rounded=0;whiteSpace=wrap;html=1;" vertex="1" parent="1">
          <mxGeometry x="520" y="115" width="120" height="60" as="geometry" />
        </mxCell>
        <mxCell id="5UwkUlyVJq9PyRfIacwS-4" value="" style="ellipse;whiteSpace=wrap;html=1;aspect=fixed;fillColor=#0050ef;fontColor=#ffffff;strokeColor=#001DBC;" vertex="1" parent="1">
          <mxGeometry x="170" y="110" width="10" height="10" as="geometry" />
        </mxCell>
        <mxCell id="5UwkUlyVJq9PyRfIacwS-5" value="" style="ellipse;whiteSpace=wrap;html=1;aspect=fixed;fillColor=#0050ef;fontColor=#ffffff;strokeColor=#001DBC;" vertex="1" parent="1">
          <mxGeometry x="170" y="130" width="10" height="10" as="geometry" />
        </mxCell>
        <mxCell id="5UwkUlyVJq9PyRfIacwS-6" value="" style="ellipse;whiteSpace=wrap;html=1;aspect=fixed;" vertex="1" parent="1">
          <mxGeometry x="170" y="150" width="10" height="10" as="geometry" />
        </mxCell>
        <mxCell id="5UwkUlyVJq9PyRfIacwS-7" value="" style="ellipse;whiteSpace=wrap;html=1;aspect=fixed;" vertex="1" parent="1">
          <mxGeometry x="170" y="170" width="10" height="10" as="geometry" />
        </mxCell>
        <mxCell id="5UwkUlyVJq9PyRfIacwS-8" value="id" style="text;html=1;align=center;verticalAlign=middle;resizable=0;points=[];autosize=1;strokeColor=none;fillColor=none;" vertex="1" parent="1">
          <mxGeometry x="140" y="100" width="30" height="30" as="geometry" />
        </mxCell>
        <mxCell id="5UwkUlyVJq9PyRfIacwS-9" value="email" style="text;strokeColor=none;align=center;fillColor=none;html=1;verticalAlign=middle;whiteSpace=wrap;rounded=0;" vertex="1" parent="1">
          <mxGeometry x="115" y="120" width="60" height="30" as="geometry" />
        </mxCell>
        <mxCell id="5UwkUlyVJq9PyRfIacwS-10" value="password" style="text;html=1;align=center;verticalAlign=middle;resizable=0;points=[];autosize=1;strokeColor=none;fillColor=none;" vertex="1" parent="1">
          <mxGeometry x="100" y="140" width="70" height="30" as="geometry" />
        </mxCell>
        <mxCell id="5UwkUlyVJq9PyRfIacwS-12" value="name" style="text;html=1;align=center;verticalAlign=middle;resizable=0;points=[];autosize=1;strokeColor=none;fillColor=none;" vertex="1" parent="1">
          <mxGeometry x="120" y="160" width="50" height="30" as="geometry" />
        </mxCell>
        <mxCell id="5UwkUlyVJq9PyRfIacwS-13" value="" style="endArrow=none;html=1;rounded=0;entryX=0;entryY=0;entryDx=0;entryDy=0;exitX=1;exitY=0.5;exitDx=0;exitDy=0;" edge="1" parent="1" source="5UwkUlyVJq9PyRfIacwS-4" target="5UwkUlyVJq9PyRfIacwS-1">
          <mxGeometry width="50" height="50" relative="1" as="geometry">
            <mxPoint x="280" y="175" as="sourcePoint" />
            <mxPoint x="330" y="125" as="targetPoint" />
          </mxGeometry>
        </mxCell>
        <mxCell id="5UwkUlyVJq9PyRfIacwS-14" value="" style="endArrow=none;html=1;rounded=0;entryX=0;entryY=0;entryDx=0;entryDy=0;exitX=1;exitY=0.5;exitDx=0;exitDy=0;" edge="1" parent="1">
          <mxGeometry width="50" height="50" relative="1" as="geometry">
            <mxPoint x="180" y="134.93" as="sourcePoint" />
            <mxPoint x="200" y="134.93" as="targetPoint" />
          </mxGeometry>
        </mxCell>
        <mxCell id="5UwkUlyVJq9PyRfIacwS-15" value="" style="endArrow=none;html=1;rounded=0;entryX=0;entryY=0;entryDx=0;entryDy=0;exitX=1;exitY=0.5;exitDx=0;exitDy=0;" edge="1" parent="1">
          <mxGeometry width="50" height="50" relative="1" as="geometry">
            <mxPoint x="180" y="154.93" as="sourcePoint" />
            <mxPoint x="200" y="154.93" as="targetPoint" />
          </mxGeometry>
        </mxCell>
        <mxCell id="5UwkUlyVJq9PyRfIacwS-16" value="" style="endArrow=none;html=1;rounded=0;entryX=0;entryY=0;entryDx=0;entryDy=0;exitX=1;exitY=0.5;exitDx=0;exitDy=0;" edge="1" parent="1">
          <mxGeometry width="50" height="50" relative="1" as="geometry">
            <mxPoint x="180" y="175" as="sourcePoint" />
            <mxPoint x="200" y="175" as="targetPoint" />
          </mxGeometry>
        </mxCell>
        <mxCell id="5UwkUlyVJq9PyRfIacwS-17" value="CREATES" style="shape=rhombus;perimeter=rhombusPerimeter;whiteSpace=wrap;html=1;align=center;" vertex="1" parent="1">
          <mxGeometry x="360" y="115" width="120" height="60" as="geometry" />
        </mxCell>
        <mxCell id="5UwkUlyVJq9PyRfIacwS-18" value="" style="endArrow=none;html=1;rounded=0;entryX=0;entryY=0.5;entryDx=0;entryDy=0;exitX=1;exitY=0.5;exitDx=0;exitDy=0;" edge="1" parent="1" target="5UwkUlyVJq9PyRfIacwS-17">
          <mxGeometry width="50" height="50" relative="1" as="geometry">
            <mxPoint x="320" y="144.8" as="sourcePoint" />
            <mxPoint x="340" y="144.8" as="targetPoint" />
          </mxGeometry>
        </mxCell>
        <mxCell id="5UwkUlyVJq9PyRfIacwS-20" value="(0, n)" style="edgeLabel;html=1;align=center;verticalAlign=middle;resizable=0;points=[];" vertex="1" connectable="0" parent="5UwkUlyVJq9PyRfIacwS-18">
          <mxGeometry x="-0.0296" y="-2" relative="1" as="geometry">
            <mxPoint as="offset" />
          </mxGeometry>
        </mxCell>
        <mxCell id="5UwkUlyVJq9PyRfIacwS-19" value="" style="endArrow=none;html=1;rounded=0;entryX=0;entryY=0.5;entryDx=0;entryDy=0;exitX=1;exitY=0.5;exitDx=0;exitDy=0;" edge="1" parent="1">
          <mxGeometry width="50" height="50" relative="1" as="geometry">
            <mxPoint x="480" y="144.8" as="sourcePoint" />
            <mxPoint x="520" y="145" as="targetPoint" />
          </mxGeometry>
        </mxCell>
        <mxCell id="5UwkUlyVJq9PyRfIacwS-21" value="(1, 1)" style="edgeLabel;html=1;align=center;verticalAlign=middle;resizable=0;points=[];" vertex="1" connectable="0" parent="5UwkUlyVJq9PyRfIacwS-19">
          <mxGeometry x="-0.1697" y="-1" relative="1" as="geometry">
            <mxPoint as="offset" />
          </mxGeometry>
        </mxCell>
        <mxCell id="5UwkUlyVJq9PyRfIacwS-22" value="" style="ellipse;whiteSpace=wrap;html=1;aspect=fixed;fillColor=#0050ef;fontColor=#ffffff;strokeColor=#001DBC;" vertex="1" parent="1">
          <mxGeometry x="660" y="120" width="10" height="10" as="geometry" />
        </mxCell>
        <mxCell id="5UwkUlyVJq9PyRfIacwS-24" value="" style="ellipse;whiteSpace=wrap;html=1;aspect=fixed;" vertex="1" parent="1">
          <mxGeometry x="660" y="160" width="10" height="10" as="geometry" />
        </mxCell>
        <mxCell id="5UwkUlyVJq9PyRfIacwS-25" value="" style="ellipse;whiteSpace=wrap;html=1;aspect=fixed;" vertex="1" parent="1">
          <mxGeometry x="660" y="140" width="10" height="10" as="geometry" />
        </mxCell>
        <mxCell id="5UwkUlyVJq9PyRfIacwS-26" value="id" style="text;html=1;align=center;verticalAlign=middle;resizable=0;points=[];autosize=1;strokeColor=none;fillColor=none;" vertex="1" parent="1">
          <mxGeometry x="670" y="110" width="30" height="30" as="geometry" />
        </mxCell>
        <mxCell id="5UwkUlyVJq9PyRfIacwS-27" value="owner" style="text;strokeColor=none;align=center;fillColor=none;html=1;verticalAlign=middle;whiteSpace=wrap;rounded=0;" vertex="1" parent="1">
          <mxGeometry x="665" y="130" width="60" height="30" as="geometry" />
        </mxCell>
        <mxCell id="5UwkUlyVJq9PyRfIacwS-29" value="name" style="text;html=1;align=center;verticalAlign=middle;resizable=0;points=[];autosize=1;strokeColor=none;fillColor=none;" vertex="1" parent="1">
          <mxGeometry x="670" y="150" width="50" height="30" as="geometry" />
        </mxCell>
        <mxCell id="5UwkUlyVJq9PyRfIacwS-30" value="" style="endArrow=none;html=1;rounded=0;entryX=0;entryY=0;entryDx=0;entryDy=0;exitX=1;exitY=0.5;exitDx=0;exitDy=0;" edge="1" parent="1">
          <mxGeometry width="50" height="50" relative="1" as="geometry">
            <mxPoint x="640" y="125" as="sourcePoint" />
            <mxPoint x="660" y="125" as="targetPoint" />
          </mxGeometry>
        </mxCell>
        <mxCell id="5UwkUlyVJq9PyRfIacwS-31" value="" style="endArrow=none;html=1;rounded=0;entryX=0;entryY=0;entryDx=0;entryDy=0;exitX=1;exitY=0.5;exitDx=0;exitDy=0;" edge="1" parent="1">
          <mxGeometry width="50" height="50" relative="1" as="geometry">
            <mxPoint x="640" y="144.92000000000002" as="sourcePoint" />
            <mxPoint x="660" y="144.92000000000002" as="targetPoint" />
          </mxGeometry>
        </mxCell>
        <mxCell id="5UwkUlyVJq9PyRfIacwS-32" value="" style="endArrow=none;html=1;rounded=0;entryX=0;entryY=0;entryDx=0;entryDy=0;exitX=1;exitY=0.5;exitDx=0;exitDy=0;" edge="1" parent="1">
          <mxGeometry width="50" height="50" relative="1" as="geometry">
            <mxPoint x="640" y="164.92000000000002" as="sourcePoint" />
            <mxPoint x="660" y="164.92000000000002" as="targetPoint" />
            <Array as="points">
              <mxPoint x="650" y="164.99" />
            </Array>
          </mxGeometry>
        </mxCell>
        <mxCell id="5UwkUlyVJq9PyRfIacwS-34" value="SELLS" style="shape=rhombus;perimeter=rhombusPerimeter;whiteSpace=wrap;html=1;align=center;" vertex="1" parent="1">
          <mxGeometry x="520" y="220" width="120" height="60" as="geometry" />
        </mxCell>
        <mxCell id="5UwkUlyVJq9PyRfIacwS-35" value="" style="endArrow=none;html=1;rounded=0;exitX=0.5;exitY=1;exitDx=0;exitDy=0;entryX=0.5;entryY=0;entryDx=0;entryDy=0;" edge="1" parent="1" source="5UwkUlyVJq9PyRfIacwS-3" target="5UwkUlyVJq9PyRfIacwS-34">
          <mxGeometry width="50" height="50" relative="1" as="geometry">
            <mxPoint x="610" y="430" as="sourcePoint" />
            <mxPoint x="660" y="380" as="targetPoint" />
          </mxGeometry>
        </mxCell>
        <mxCell id="5UwkUlyVJq9PyRfIacwS-39" value="(0, n)" style="edgeLabel;html=1;align=center;verticalAlign=middle;resizable=0;points=[];" vertex="1" connectable="0" parent="5UwkUlyVJq9PyRfIacwS-35">
          <mxGeometry x="-0.0304" relative="1" as="geometry">
            <mxPoint as="offset" />
          </mxGeometry>
        </mxCell>
        <mxCell id="5UwkUlyVJq9PyRfIacwS-37" value="" style="endArrow=none;html=1;rounded=0;exitX=0.5;exitY=1;exitDx=0;exitDy=0;entryX=0.501;entryY=-0.025;entryDx=0;entryDy=0;entryPerimeter=0;" edge="1" parent="1" target="5UwkUlyVJq9PyRfIacwS-2">
          <mxGeometry width="50" height="50" relative="1" as="geometry">
            <mxPoint x="579.88" y="280" as="sourcePoint" />
            <mxPoint x="579.88" y="325" as="targetPoint" />
          </mxGeometry>
        </mxCell>
        <mxCell id="5UwkUlyVJq9PyRfIacwS-40" value="(1, 1)" style="edgeLabel;html=1;align=center;verticalAlign=middle;resizable=0;points=[];" vertex="1" connectable="0" parent="5UwkUlyVJq9PyRfIacwS-37">
          <mxGeometry x="-0.1889" y="-1" relative="1" as="geometry">
            <mxPoint as="offset" />
          </mxGeometry>
        </mxCell>
        <mxCell id="5UwkUlyVJq9PyRfIacwS-41" value="" style="ellipse;whiteSpace=wrap;html=1;aspect=fixed;fillColor=#0050ef;fontColor=#ffffff;strokeColor=#001DBC;" vertex="1" parent="1">
          <mxGeometry x="660" y="275" width="10" height="10" as="geometry" />
        </mxCell>
        <mxCell id="5UwkUlyVJq9PyRfIacwS-42" value="" style="ellipse;whiteSpace=wrap;html=1;aspect=fixed;" vertex="1" parent="1">
          <mxGeometry x="660" y="315" width="10" height="10" as="geometry" />
        </mxCell>
        <mxCell id="5UwkUlyVJq9PyRfIacwS-43" value="" style="ellipse;whiteSpace=wrap;html=1;aspect=fixed;" vertex="1" parent="1">
          <mxGeometry x="660" y="295" width="10" height="10" as="geometry" />
        </mxCell>
        <mxCell id="5UwkUlyVJq9PyRfIacwS-44" value="id" style="text;html=1;align=center;verticalAlign=middle;resizable=0;points=[];autosize=1;strokeColor=none;fillColor=none;" vertex="1" parent="1">
          <mxGeometry x="665" y="265" width="30" height="30" as="geometry" />
        </mxCell>
        <mxCell id="5UwkUlyVJq9PyRfIacwS-45" value="name" style="text;strokeColor=none;align=center;fillColor=none;html=1;verticalAlign=middle;whiteSpace=wrap;rounded=0;" vertex="1" parent="1">
          <mxGeometry x="660" y="285" width="60" height="30" as="geometry" />
        </mxCell>
        <mxCell id="5UwkUlyVJq9PyRfIacwS-46" value="description" style="text;html=1;align=center;verticalAlign=middle;resizable=0;points=[];autosize=1;strokeColor=none;fillColor=none;" vertex="1" parent="1">
          <mxGeometry x="665" y="305" width="80" height="30" as="geometry" />
        </mxCell>
        <mxCell id="5UwkUlyVJq9PyRfIacwS-49" value="" style="endArrow=none;html=1;rounded=0;entryX=0;entryY=0;entryDx=0;entryDy=0;exitX=1;exitY=0;exitDx=0;exitDy=0;" edge="1" parent="1" source="5UwkUlyVJq9PyRfIacwS-2">
          <mxGeometry width="50" height="50" relative="1" as="geometry">
            <mxPoint x="640" y="319.92" as="sourcePoint" />
            <mxPoint x="660" y="319.92" as="targetPoint" />
            <Array as="points">
              <mxPoint x="640" y="320" />
            </Array>
          </mxGeometry>
        </mxCell>
        <mxCell id="5UwkUlyVJq9PyRfIacwS-50" value="" style="ellipse;whiteSpace=wrap;html=1;aspect=fixed;" vertex="1" parent="1">
          <mxGeometry x="660" y="355" width="10" height="10" as="geometry" />
        </mxCell>
        <mxCell id="5UwkUlyVJq9PyRfIacwS-51" value="" style="ellipse;whiteSpace=wrap;html=1;aspect=fixed;" vertex="1" parent="1">
          <mxGeometry x="660" y="335" width="10" height="10" as="geometry" />
        </mxCell>
        <mxCell id="5UwkUlyVJq9PyRfIacwS-52" value="" style="endArrow=none;html=1;rounded=0;entryX=0;entryY=0;entryDx=0;entryDy=0;exitX=1;exitY=0.5;exitDx=0;exitDy=0;" edge="1" parent="1">
          <mxGeometry width="50" height="50" relative="1" as="geometry">
            <mxPoint x="640" y="339.92" as="sourcePoint" />
            <mxPoint x="660" y="339.92" as="targetPoint" />
          </mxGeometry>
        </mxCell>
        <mxCell id="5UwkUlyVJq9PyRfIacwS-53" value="" style="endArrow=none;html=1;rounded=0;entryX=0;entryY=0;entryDx=0;entryDy=0;exitX=1;exitY=0.5;exitDx=0;exitDy=0;" edge="1" parent="1">
          <mxGeometry width="50" height="50" relative="1" as="geometry">
            <mxPoint x="640" y="359.92" as="sourcePoint" />
            <mxPoint x="660" y="359.92" as="targetPoint" />
            <Array as="points">
              <mxPoint x="650" y="359.99" />
            </Array>
          </mxGeometry>
        </mxCell>
        <mxCell id="5UwkUlyVJq9PyRfIacwS-54" value="stock" style="text;html=1;align=center;verticalAlign=middle;resizable=0;points=[];autosize=1;strokeColor=none;fillColor=none;" vertex="1" parent="1">
          <mxGeometry x="665" y="325" width="50" height="30" as="geometry" />
        </mxCell>
        <mxCell id="5UwkUlyVJq9PyRfIacwS-55" value="price" style="text;html=1;align=center;verticalAlign=middle;resizable=0;points=[];autosize=1;strokeColor=none;fillColor=none;" vertex="1" parent="1">
          <mxGeometry x="665" y="345" width="50" height="30" as="geometry" />
        </mxCell>
        <mxCell id="5UwkUlyVJq9PyRfIacwS-56" value="" style="ellipse;whiteSpace=wrap;html=1;aspect=fixed;" vertex="1" parent="1">
          <mxGeometry x="660" y="375" width="10" height="10" as="geometry" />
        </mxCell>
        <mxCell id="5UwkUlyVJq9PyRfIacwS-58" value="discount (0, 1)" style="text;html=1;align=center;verticalAlign=middle;resizable=0;points=[];autosize=1;strokeColor=none;fillColor=none;" vertex="1" parent="1">
          <mxGeometry x="665" y="365" width="100" height="30" as="geometry" />
        </mxCell>
        <mxCell id="5UwkUlyVJq9PyRfIacwS-59" value="" style="ellipse;whiteSpace=wrap;html=1;aspect=fixed;" vertex="1" parent="1">
          <mxGeometry x="660" y="395" width="10" height="10" as="geometry" />
        </mxCell>
        <mxCell id="5UwkUlyVJq9PyRfIacwS-61" value="size (0, n)" style="text;html=1;align=center;verticalAlign=middle;resizable=0;points=[];autosize=1;strokeColor=none;fillColor=none;" vertex="1" parent="1">
          <mxGeometry x="665" y="385" width="80" height="30" as="geometry" />
        </mxCell>
        <mxCell id="5UwkUlyVJq9PyRfIacwS-62" value="" style="ellipse;whiteSpace=wrap;html=1;aspect=fixed;" vertex="1" parent="1">
          <mxGeometry x="660" y="415" width="10" height="10" as="geometry" />
        </mxCell>
        <mxCell id="5UwkUlyVJq9PyRfIacwS-64" value="image (1, n)" style="text;html=1;align=center;verticalAlign=middle;resizable=0;points=[];autosize=1;strokeColor=none;fillColor=none;" vertex="1" parent="1">
          <mxGeometry x="665" y="425" width="90" height="30" as="geometry" />
        </mxCell>
        <mxCell id="5UwkUlyVJq9PyRfIacwS-67" value="" style="endArrow=none;html=1;rounded=0;entryX=0;entryY=0;entryDx=0;entryDy=0;exitX=1;exitY=0.5;exitDx=0;exitDy=0;" edge="1" parent="1">
          <mxGeometry width="50" height="50" relative="1" as="geometry">
            <mxPoint x="640" y="379.90000000000003" as="sourcePoint" />
            <mxPoint x="660" y="379.90000000000003" as="targetPoint" />
            <Array as="points">
              <mxPoint x="650" y="379.97" />
            </Array>
          </mxGeometry>
        </mxCell>
        <mxCell id="5UwkUlyVJq9PyRfIacwS-72" value="ORDER" style="rounded=0;whiteSpace=wrap;html=1;" vertex="1" parent="1">
          <mxGeometry x="200" y="330" width="120" height="60" as="geometry" />
        </mxCell>
        <mxCell id="5UwkUlyVJq9PyRfIacwS-74" value="BUYS" style="shape=rhombus;perimeter=rhombusPerimeter;whiteSpace=wrap;html=1;align=center;" vertex="1" parent="1">
          <mxGeometry x="360" y="330" width="120" height="60" as="geometry" />
        </mxCell>
        <mxCell id="5UwkUlyVJq9PyRfIacwS-77" value="" style="endArrow=none;html=1;rounded=0;entryX=0;entryY=0.5;entryDx=0;entryDy=0;exitX=1;exitY=0.5;exitDx=0;exitDy=0;" edge="1" parent="1">
          <mxGeometry width="50" height="50" relative="1" as="geometry">
            <mxPoint x="480" y="359.8" as="sourcePoint" />
            <mxPoint x="520" y="360" as="targetPoint" />
          </mxGeometry>
        </mxCell>
        <mxCell id="5UwkUlyVJq9PyRfIacwS-78" value="(0, n)" style="edgeLabel;html=1;align=center;verticalAlign=middle;resizable=0;points=[];" vertex="1" connectable="0" parent="5UwkUlyVJq9PyRfIacwS-77">
          <mxGeometry x="-0.1697" y="-1" relative="1" as="geometry">
            <mxPoint as="offset" />
          </mxGeometry>
        </mxCell>
        <mxCell id="5UwkUlyVJq9PyRfIacwS-84" value="MAKES" style="shape=rhombus;perimeter=rhombusPerimeter;whiteSpace=wrap;html=1;align=center;" vertex="1" parent="1">
          <mxGeometry x="200" y="220" width="120" height="60" as="geometry" />
        </mxCell>
        <mxCell id="5UwkUlyVJq9PyRfIacwS-85" value="" style="endArrow=none;html=1;rounded=0;exitX=0.5;exitY=1;exitDx=0;exitDy=0;entryX=0.5;entryY=0;entryDx=0;entryDy=0;" edge="1" parent="1" target="5UwkUlyVJq9PyRfIacwS-84">
          <mxGeometry width="50" height="50" relative="1" as="geometry">
            <mxPoint x="260" y="175" as="sourcePoint" />
            <mxPoint x="340" y="380" as="targetPoint" />
          </mxGeometry>
        </mxCell>
        <mxCell id="5UwkUlyVJq9PyRfIacwS-86" value="(0, n)" style="edgeLabel;html=1;align=center;verticalAlign=middle;resizable=0;points=[];" vertex="1" connectable="0" parent="5UwkUlyVJq9PyRfIacwS-85">
          <mxGeometry x="-0.0304" relative="1" as="geometry">
            <mxPoint as="offset" />
          </mxGeometry>
        </mxCell>
        <mxCell id="5UwkUlyVJq9PyRfIacwS-87" value="" style="endArrow=none;html=1;rounded=0;exitX=0.5;exitY=1;exitDx=0;exitDy=0;entryX=0.501;entryY=-0.025;entryDx=0;entryDy=0;entryPerimeter=0;" edge="1" parent="1">
          <mxGeometry width="50" height="50" relative="1" as="geometry">
            <mxPoint x="259.88" y="280" as="sourcePoint" />
            <mxPoint x="260" y="329" as="targetPoint" />
          </mxGeometry>
        </mxCell>
        <mxCell id="5UwkUlyVJq9PyRfIacwS-88" value="(1, 1)" style="edgeLabel;html=1;align=center;verticalAlign=middle;resizable=0;points=[];" vertex="1" connectable="0" parent="5UwkUlyVJq9PyRfIacwS-87">
          <mxGeometry x="-0.1889" y="-1" relative="1" as="geometry">
            <mxPoint as="offset" />
          </mxGeometry>
        </mxCell>
        <mxCell id="5UwkUlyVJq9PyRfIacwS-91" value="" style="endArrow=none;html=1;rounded=0;entryX=0;entryY=0;entryDx=0;entryDy=0;exitX=0.835;exitY=-0.008;exitDx=0;exitDy=0;exitPerimeter=0;" edge="1" parent="1" source="5UwkUlyVJq9PyRfIacwS-2">
          <mxGeometry width="50" height="50" relative="1" as="geometry">
            <mxPoint x="640" y="279.94" as="sourcePoint" />
            <mxPoint x="660" y="279.94" as="targetPoint" />
            <Array as="points">
              <mxPoint x="620" y="280" />
            </Array>
          </mxGeometry>
        </mxCell>
        <mxCell id="5UwkUlyVJq9PyRfIacwS-92" value="" style="endArrow=none;html=1;rounded=0;entryX=0;entryY=0;entryDx=0;entryDy=0;exitX=0.917;exitY=0.003;exitDx=0;exitDy=0;exitPerimeter=0;" edge="1" parent="1" source="5UwkUlyVJq9PyRfIacwS-2">
          <mxGeometry width="50" height="50" relative="1" as="geometry">
            <mxPoint x="640" y="299.94" as="sourcePoint" />
            <mxPoint x="660" y="299.94" as="targetPoint" />
            <Array as="points">
              <mxPoint x="630" y="300" />
            </Array>
          </mxGeometry>
        </mxCell>
        <mxCell id="5UwkUlyVJq9PyRfIacwS-93" value="" style="endArrow=none;html=1;rounded=0;entryX=0;entryY=0;entryDx=0;entryDy=0;exitX=1;exitY=1;exitDx=0;exitDy=0;" edge="1" parent="1" source="5UwkUlyVJq9PyRfIacwS-2">
          <mxGeometry width="50" height="50" relative="1" as="geometry">
            <mxPoint x="640" y="400" as="sourcePoint" />
            <mxPoint x="660" y="399.94" as="targetPoint" />
            <Array as="points">
              <mxPoint x="640" y="400" />
              <mxPoint x="650" y="400.01" />
            </Array>
          </mxGeometry>
        </mxCell>
        <mxCell id="5UwkUlyVJq9PyRfIacwS-94" value="" style="endArrow=none;html=1;rounded=0;entryX=0;entryY=0;entryDx=0;entryDy=0;" edge="1" parent="1">
          <mxGeometry width="50" height="50" relative="1" as="geometry">
            <mxPoint x="630" y="390" as="sourcePoint" />
            <mxPoint x="660" y="419.94" as="targetPoint" />
            <Array as="points">
              <mxPoint x="630" y="420" />
            </Array>
          </mxGeometry>
        </mxCell>
        <mxCell id="5UwkUlyVJq9PyRfIacwS-95" value="" style="ellipse;whiteSpace=wrap;html=1;aspect=fixed;" vertex="1" parent="1">
          <mxGeometry x="660" y="435" width="10" height="10" as="geometry" />
        </mxCell>
        <mxCell id="5UwkUlyVJq9PyRfIacwS-96" value="" style="endArrow=none;html=1;rounded=0;entryX=0;entryY=0;entryDx=0;entryDy=0;exitX=0.833;exitY=1.006;exitDx=0;exitDy=0;exitPerimeter=0;" edge="1" parent="1" source="5UwkUlyVJq9PyRfIacwS-2">
          <mxGeometry width="50" height="50" relative="1" as="geometry">
            <mxPoint x="620" y="440" as="sourcePoint" />
            <mxPoint x="660" y="439.94" as="targetPoint" />
            <Array as="points">
              <mxPoint x="620" y="440" />
              <mxPoint x="650" y="440.01" />
            </Array>
          </mxGeometry>
        </mxCell>
        <mxCell id="5UwkUlyVJq9PyRfIacwS-97" value="color (0, n)" style="text;html=1;align=center;verticalAlign=middle;resizable=0;points=[];autosize=1;strokeColor=none;fillColor=none;" vertex="1" parent="1">
          <mxGeometry x="665" y="405" width="80" height="30" as="geometry" />
        </mxCell>
        <mxCell id="5UwkUlyVJq9PyRfIacwS-98" value="" style="ellipse;whiteSpace=wrap;html=1;aspect=fixed;" vertex="1" parent="1">
          <mxGeometry x="450" y="400" width="10" height="10" as="geometry" />
        </mxCell>
        <mxCell id="5UwkUlyVJq9PyRfIacwS-99" value="" style="ellipse;whiteSpace=wrap;html=1;aspect=fixed;fillColor=#0050ef;fontColor=#ffffff;strokeColor=#001DBC;" vertex="1" parent="1">
          <mxGeometry x="170" y="325" width="10" height="10" as="geometry" />
        </mxCell>
        <mxCell id="5UwkUlyVJq9PyRfIacwS-100" value="id" style="text;html=1;align=center;verticalAlign=middle;resizable=0;points=[];autosize=1;strokeColor=none;fillColor=none;" vertex="1" parent="1">
          <mxGeometry x="140" y="315" width="30" height="30" as="geometry" />
        </mxCell>
        <mxCell id="5UwkUlyVJq9PyRfIacwS-102" value="product_id" style="text;html=1;align=center;verticalAlign=middle;resizable=0;points=[];autosize=1;strokeColor=none;fillColor=none;" vertex="1" parent="1">
          <mxGeometry x="450" y="390" width="80" height="30" as="geometry" />
        </mxCell>
        <mxCell id="5UwkUlyVJq9PyRfIacwS-103" value="" style="ellipse;whiteSpace=wrap;html=1;aspect=fixed;" vertex="1" parent="1">
          <mxGeometry x="440" y="420" width="10" height="10" as="geometry" />
        </mxCell>
        <mxCell id="5UwkUlyVJq9PyRfIacwS-104" value="amount" style="text;html=1;align=center;verticalAlign=middle;resizable=0;points=[];autosize=1;strokeColor=none;fillColor=none;" vertex="1" parent="1">
          <mxGeometry x="440" y="410" width="60" height="30" as="geometry" />
        </mxCell>
        <mxCell id="5UwkUlyVJq9PyRfIacwS-105" value="" style="ellipse;whiteSpace=wrap;html=1;aspect=fixed;" vertex="1" parent="1">
          <mxGeometry x="430" y="440" width="10" height="10" as="geometry" />
        </mxCell>
        <mxCell id="5UwkUlyVJq9PyRfIacwS-106" value="color (0, 1)" style="text;html=1;align=center;verticalAlign=middle;resizable=0;points=[];autosize=1;strokeColor=none;fillColor=none;" vertex="1" parent="1">
          <mxGeometry x="430" y="430" width="80" height="30" as="geometry" />
        </mxCell>
        <mxCell id="5UwkUlyVJq9PyRfIacwS-107" value="" style="ellipse;whiteSpace=wrap;html=1;aspect=fixed;" vertex="1" parent="1">
          <mxGeometry x="410" y="455" width="10" height="10" as="geometry" />
        </mxCell>
        <mxCell id="5UwkUlyVJq9PyRfIacwS-108" value="size (0, 1)" style="text;html=1;align=center;verticalAlign=middle;resizable=0;points=[];autosize=1;strokeColor=none;fillColor=none;" vertex="1" parent="1">
          <mxGeometry x="410" y="445" width="80" height="30" as="geometry" />
        </mxCell>
        <mxCell id="5UwkUlyVJq9PyRfIacwS-109" value="" style="ellipse;whiteSpace=wrap;html=1;aspect=fixed;" vertex="1" parent="1">
          <mxGeometry x="400" y="475" width="10" height="10" as="geometry" />
        </mxCell>
        <mxCell id="5UwkUlyVJq9PyRfIacwS-111" value="price" style="text;html=1;align=center;verticalAlign=middle;resizable=0;points=[];autosize=1;strokeColor=none;fillColor=none;" vertex="1" parent="1">
          <mxGeometry x="400" y="465" width="50" height="30" as="geometry" />
        </mxCell>
        <mxCell id="5UwkUlyVJq9PyRfIacwS-112" value="" style="ellipse;whiteSpace=wrap;html=1;aspect=fixed;" vertex="1" parent="1">
          <mxGeometry x="390" y="495" width="10" height="10" as="geometry" />
        </mxCell>
        <mxCell id="5UwkUlyVJq9PyRfIacwS-113" value="discount (0, 1)" style="text;html=1;align=center;verticalAlign=middle;resizable=0;points=[];autosize=1;strokeColor=none;fillColor=none;" vertex="1" parent="1">
          <mxGeometry x="390" y="485" width="100" height="30" as="geometry" />
        </mxCell>
        <mxCell id="5UwkUlyVJq9PyRfIacwS-116" value="" style="ellipse;whiteSpace=wrap;html=1;aspect=fixed;" vertex="1" parent="1">
          <mxGeometry x="170" y="345" width="10" height="10" as="geometry" />
        </mxCell>
        <mxCell id="5UwkUlyVJq9PyRfIacwS-117" value="total_price" style="text;html=1;align=center;verticalAlign=middle;resizable=0;points=[];autosize=1;strokeColor=none;fillColor=none;" vertex="1" parent="1">
          <mxGeometry x="95" y="335" width="80" height="30" as="geometry" />
        </mxCell>
        <mxCell id="5UwkUlyVJq9PyRfIacwS-118" value="" style="ellipse;whiteSpace=wrap;html=1;aspect=fixed;" vertex="1" parent="1">
          <mxGeometry x="170" y="365" width="10" height="10" as="geometry" />
        </mxCell>
        <mxCell id="5UwkUlyVJq9PyRfIacwS-119" value="invoice_number" style="text;html=1;align=center;verticalAlign=middle;resizable=0;points=[];autosize=1;strokeColor=none;fillColor=none;" vertex="1" parent="1">
          <mxGeometry x="65" y="355" width="110" height="30" as="geometry" />
        </mxCell>
        <mxCell id="5UwkUlyVJq9PyRfIacwS-120" value="" style="endArrow=none;html=1;rounded=0;entryX=0;entryY=0;entryDx=0;entryDy=0;exitX=1;exitY=0.5;exitDx=0;exitDy=0;" edge="1" parent="1">
          <mxGeometry width="50" height="50" relative="1" as="geometry">
            <mxPoint x="180" y="329.78999999999996" as="sourcePoint" />
            <mxPoint x="200" y="329.78999999999996" as="targetPoint" />
          </mxGeometry>
        </mxCell>
        <mxCell id="5UwkUlyVJq9PyRfIacwS-121" value="" style="endArrow=none;html=1;rounded=0;entryX=0;entryY=0;entryDx=0;entryDy=0;exitX=1;exitY=0.5;exitDx=0;exitDy=0;" edge="1" parent="1">
          <mxGeometry width="50" height="50" relative="1" as="geometry">
            <mxPoint x="180" y="349.78999999999996" as="sourcePoint" />
            <mxPoint x="200" y="349.78999999999996" as="targetPoint" />
          </mxGeometry>
        </mxCell>
        <mxCell id="5UwkUlyVJq9PyRfIacwS-122" value="" style="endArrow=none;html=1;rounded=0;entryX=0;entryY=0;entryDx=0;entryDy=0;exitX=1;exitY=0.5;exitDx=0;exitDy=0;" edge="1" parent="1">
          <mxGeometry width="50" height="50" relative="1" as="geometry">
            <mxPoint x="180" y="369.78999999999996" as="sourcePoint" />
            <mxPoint x="200" y="369.78999999999996" as="targetPoint" />
          </mxGeometry>
        </mxCell>
        <mxCell id="5UwkUlyVJq9PyRfIacwS-123" value="" style="ellipse;whiteSpace=wrap;html=1;aspect=fixed;" vertex="1" parent="1">
          <mxGeometry x="170" y="385" width="10" height="10" as="geometry" />
        </mxCell>
        <mxCell id="5UwkUlyVJq9PyRfIacwS-124" value="status" style="text;html=1;align=center;verticalAlign=middle;resizable=0;points=[];autosize=1;strokeColor=none;fillColor=none;" vertex="1" parent="1">
          <mxGeometry x="115" y="375" width="60" height="30" as="geometry" />
        </mxCell>
        <mxCell id="5UwkUlyVJq9PyRfIacwS-125" value="" style="endArrow=none;html=1;rounded=0;entryX=0;entryY=0;entryDx=0;entryDy=0;exitX=1;exitY=0.5;exitDx=0;exitDy=0;" edge="1" parent="1">
          <mxGeometry width="50" height="50" relative="1" as="geometry">
            <mxPoint x="180" y="389.78999999999996" as="sourcePoint" />
            <mxPoint x="200" y="389.78999999999996" as="targetPoint" />
          </mxGeometry>
        </mxCell>
        <mxCell id="5UwkUlyVJq9PyRfIacwS-126" value="" style="endArrow=none;html=1;rounded=0;entryX=0.5;entryY=0;entryDx=0;entryDy=0;exitX=0.283;exitY=0.775;exitDx=0;exitDy=0;exitPerimeter=0;" edge="1" parent="1" source="5UwkUlyVJq9PyRfIacwS-74" target="5UwkUlyVJq9PyRfIacwS-112">
          <mxGeometry width="50" height="50" relative="1" as="geometry">
            <mxPoint x="395" y="380" as="sourcePoint" />
            <mxPoint x="360" y="490" as="targetPoint" />
          </mxGeometry>
        </mxCell>
        <mxCell id="5UwkUlyVJq9PyRfIacwS-127" value="" style="endArrow=none;html=1;rounded=0;entryX=0.5;entryY=0;entryDx=0;entryDy=0;exitX=0.372;exitY=0.872;exitDx=0;exitDy=0;exitPerimeter=0;" edge="1" parent="1" source="5UwkUlyVJq9PyRfIacwS-74" target="5UwkUlyVJq9PyRfIacwS-109">
          <mxGeometry width="50" height="50" relative="1" as="geometry">
            <mxPoint x="404.5" y="357" as="sourcePoint" />
            <mxPoint x="405.5" y="475" as="targetPoint" />
          </mxGeometry>
        </mxCell>
        <mxCell id="5UwkUlyVJq9PyRfIacwS-128" value="" style="endArrow=none;html=1;rounded=0;entryX=0.5;entryY=0;entryDx=0;entryDy=0;exitX=0.457;exitY=0.965;exitDx=0;exitDy=0;exitPerimeter=0;" edge="1" parent="1" source="5UwkUlyVJq9PyRfIacwS-74">
          <mxGeometry width="50" height="50" relative="1" as="geometry">
            <mxPoint x="415" y="390" as="sourcePoint" />
            <mxPoint x="415" y="455" as="targetPoint" />
          </mxGeometry>
        </mxCell>
        <mxCell id="5UwkUlyVJq9PyRfIacwS-129" value="" style="endArrow=none;html=1;rounded=0;entryX=0.5;entryY=0;entryDx=0;entryDy=0;exitX=0.624;exitY=0.878;exitDx=0;exitDy=0;exitPerimeter=0;" edge="1" parent="1" source="5UwkUlyVJq9PyRfIacwS-74">
          <mxGeometry width="50" height="50" relative="1" as="geometry">
            <mxPoint x="434.94" y="347" as="sourcePoint" />
            <mxPoint x="434.94" y="440" as="targetPoint" />
          </mxGeometry>
        </mxCell>
        <mxCell id="5UwkUlyVJq9PyRfIacwS-130" value="" style="endArrow=none;html=1;rounded=0;entryX=0.5;entryY=0;entryDx=0;entryDy=0;exitX=0.707;exitY=0.794;exitDx=0;exitDy=0;exitPerimeter=0;" edge="1" parent="1" source="5UwkUlyVJq9PyRfIacwS-74">
          <mxGeometry width="50" height="50" relative="1" as="geometry">
            <mxPoint x="444.94" y="327" as="sourcePoint" />
            <mxPoint x="444.94" y="420" as="targetPoint" />
          </mxGeometry>
        </mxCell>
        <mxCell id="5UwkUlyVJq9PyRfIacwS-131" value="" style="endArrow=none;html=1;rounded=0;entryX=0.5;entryY=0;entryDx=0;entryDy=0;exitX=0.791;exitY=0.712;exitDx=0;exitDy=0;exitPerimeter=0;" edge="1" parent="1" source="5UwkUlyVJq9PyRfIacwS-74">
          <mxGeometry width="50" height="50" relative="1" as="geometry">
            <mxPoint x="455" y="370" as="sourcePoint" />
            <mxPoint x="454.94" y="400" as="targetPoint" />
          </mxGeometry>
        </mxCell>
        <mxCell id="5UwkUlyVJq9PyRfIacwS-164" value="ADDRESS" style="rounded=0;whiteSpace=wrap;html=1;" vertex="1" parent="1">
          <mxGeometry x="200" y="-100" width="120" height="60" as="geometry" />
        </mxCell>
        <mxCell id="5UwkUlyVJq9PyRfIacwS-168" value="HAS" style="shape=rhombus;perimeter=rhombusPerimeter;whiteSpace=wrap;html=1;align=center;" vertex="1" parent="1">
          <mxGeometry x="200" y="5" width="120" height="60" as="geometry" />
        </mxCell>
        <mxCell id="5UwkUlyVJq9PyRfIacwS-169" value="" style="endArrow=none;html=1;rounded=0;exitX=0.5;exitY=1;exitDx=0;exitDy=0;entryX=0.5;entryY=0;entryDx=0;entryDy=0;" edge="1" parent="1" target="5UwkUlyVJq9PyRfIacwS-168">
          <mxGeometry width="50" height="50" relative="1" as="geometry">
            <mxPoint x="260" y="-40" as="sourcePoint" />
            <mxPoint x="340" y="165" as="targetPoint" />
          </mxGeometry>
        </mxCell>
        <mxCell id="5UwkUlyVJq9PyRfIacwS-170" value="(1, n)" style="edgeLabel;html=1;align=center;verticalAlign=middle;resizable=0;points=[];" vertex="1" connectable="0" parent="5UwkUlyVJq9PyRfIacwS-169">
          <mxGeometry x="-0.0304" relative="1" as="geometry">
            <mxPoint as="offset" />
          </mxGeometry>
        </mxCell>
        <mxCell id="5UwkUlyVJq9PyRfIacwS-171" value="" style="endArrow=none;html=1;rounded=0;exitX=0.5;exitY=1;exitDx=0;exitDy=0;entryX=0.501;entryY=-0.025;entryDx=0;entryDy=0;entryPerimeter=0;" edge="1" parent="1">
          <mxGeometry width="50" height="50" relative="1" as="geometry">
            <mxPoint x="259.88" y="65" as="sourcePoint" />
            <mxPoint x="260" y="114" as="targetPoint" />
          </mxGeometry>
        </mxCell>
        <mxCell id="5UwkUlyVJq9PyRfIacwS-172" value="(1, n)" style="edgeLabel;html=1;align=center;verticalAlign=middle;resizable=0;points=[];" vertex="1" connectable="0" parent="5UwkUlyVJq9PyRfIacwS-171">
          <mxGeometry x="-0.1889" y="-1" relative="1" as="geometry">
            <mxPoint as="offset" />
          </mxGeometry>
        </mxCell>
        <mxCell id="5UwkUlyVJq9PyRfIacwS-173" value="" style="ellipse;whiteSpace=wrap;html=1;aspect=fixed;fillColor=#0050ef;fontColor=#ffffff;strokeColor=#001DBC;" vertex="1" parent="1">
          <mxGeometry x="170" y="-133.1" width="10" height="10" as="geometry" />
        </mxCell>
        <mxCell id="5UwkUlyVJq9PyRfIacwS-174" value="" style="ellipse;whiteSpace=wrap;html=1;aspect=fixed;" vertex="1" parent="1">
          <mxGeometry x="170" y="-113.1" width="10" height="10" as="geometry" />
        </mxCell>
        <mxCell id="5UwkUlyVJq9PyRfIacwS-175" value="" style="ellipse;whiteSpace=wrap;html=1;aspect=fixed;" vertex="1" parent="1">
          <mxGeometry x="170" y="-93.1" width="10" height="10" as="geometry" />
        </mxCell>
        <mxCell id="5UwkUlyVJq9PyRfIacwS-176" value="" style="ellipse;whiteSpace=wrap;html=1;aspect=fixed;" vertex="1" parent="1">
          <mxGeometry x="170" y="-73.1" width="10" height="10" as="geometry" />
        </mxCell>
        <mxCell id="5UwkUlyVJq9PyRfIacwS-177" value="id" style="text;html=1;align=center;verticalAlign=middle;resizable=0;points=[];autosize=1;strokeColor=none;fillColor=none;" vertex="1" parent="1">
          <mxGeometry x="145" y="-143.1" width="30" height="30" as="geometry" />
        </mxCell>
        <mxCell id="5UwkUlyVJq9PyRfIacwS-178" value="country" style="text;strokeColor=none;align=center;fillColor=none;html=1;verticalAlign=middle;whiteSpace=wrap;rounded=0;" vertex="1" parent="1">
          <mxGeometry x="115" y="-123.1" width="60" height="30" as="geometry" />
        </mxCell>
        <mxCell id="5UwkUlyVJq9PyRfIacwS-179" value="province" style="text;html=1;align=center;verticalAlign=middle;resizable=0;points=[];autosize=1;strokeColor=none;fillColor=none;" vertex="1" parent="1">
          <mxGeometry x="105" y="-103.1" width="70" height="30" as="geometry" />
        </mxCell>
        <mxCell id="5UwkUlyVJq9PyRfIacwS-180" value="city" style="text;html=1;align=center;verticalAlign=middle;resizable=0;points=[];autosize=1;strokeColor=none;fillColor=none;" vertex="1" parent="1">
          <mxGeometry x="135" y="-83.1" width="40" height="30" as="geometry" />
        </mxCell>
        <mxCell id="5UwkUlyVJq9PyRfIacwS-181" value="" style="endArrow=none;html=1;rounded=0;entryX=0.169;entryY=-0.001;entryDx=0;entryDy=0;exitX=1;exitY=0.5;exitDx=0;exitDy=0;entryPerimeter=0;" edge="1" parent="1" source="5UwkUlyVJq9PyRfIacwS-173" target="5UwkUlyVJq9PyRfIacwS-164">
          <mxGeometry width="50" height="50" relative="1" as="geometry">
            <mxPoint x="280" y="-68.1" as="sourcePoint" />
            <mxPoint x="200" y="-128.1" as="targetPoint" />
            <Array as="points">
              <mxPoint x="220" y="-128" />
            </Array>
          </mxGeometry>
        </mxCell>
        <mxCell id="5UwkUlyVJq9PyRfIacwS-182" value="" style="endArrow=none;html=1;rounded=0;entryX=0.084;entryY=-0.003;entryDx=0;entryDy=0;exitX=1;exitY=0.5;exitDx=0;exitDy=0;entryPerimeter=0;" edge="1" parent="1" target="5UwkUlyVJq9PyRfIacwS-164">
          <mxGeometry width="50" height="50" relative="1" as="geometry">
            <mxPoint x="180" y="-108.16999999999999" as="sourcePoint" />
            <mxPoint x="200" y="-108.16999999999999" as="targetPoint" />
            <Array as="points">
              <mxPoint x="210" y="-108" />
            </Array>
          </mxGeometry>
        </mxCell>
        <mxCell id="5UwkUlyVJq9PyRfIacwS-183" value="" style="endArrow=none;html=1;rounded=0;entryX=0;entryY=0;entryDx=0;entryDy=0;exitX=1;exitY=0.5;exitDx=0;exitDy=0;" edge="1" parent="1">
          <mxGeometry width="50" height="50" relative="1" as="geometry">
            <mxPoint x="180" y="-88.16999999999999" as="sourcePoint" />
            <mxPoint x="200" y="-88.16999999999999" as="targetPoint" />
          </mxGeometry>
        </mxCell>
        <mxCell id="5UwkUlyVJq9PyRfIacwS-184" value="" style="endArrow=none;html=1;rounded=0;entryX=0;entryY=0;entryDx=0;entryDy=0;exitX=1;exitY=0.5;exitDx=0;exitDy=0;" edge="1" parent="1">
          <mxGeometry width="50" height="50" relative="1" as="geometry">
            <mxPoint x="180" y="-68.1" as="sourcePoint" />
            <mxPoint x="200" y="-68.1" as="targetPoint" />
          </mxGeometry>
        </mxCell>
        <mxCell id="5UwkUlyVJq9PyRfIacwS-186" value="" style="ellipse;whiteSpace=wrap;html=1;aspect=fixed;" vertex="1" parent="1">
          <mxGeometry x="170" y="-53.1" width="10" height="10" as="geometry" />
        </mxCell>
        <mxCell id="5UwkUlyVJq9PyRfIacwS-187" value="street" style="text;html=1;align=center;verticalAlign=middle;resizable=0;points=[];autosize=1;strokeColor=none;fillColor=none;" vertex="1" parent="1">
          <mxGeometry x="125" y="-63.1" width="50" height="30" as="geometry" />
        </mxCell>
        <mxCell id="5UwkUlyVJq9PyRfIacwS-188" value="" style="endArrow=none;html=1;rounded=0;entryX=0;entryY=0;entryDx=0;entryDy=0;exitX=1;exitY=0.5;exitDx=0;exitDy=0;" edge="1" parent="1">
          <mxGeometry width="50" height="50" relative="1" as="geometry">
            <mxPoint x="180" y="-48.1" as="sourcePoint" />
            <mxPoint x="200" y="-48.1" as="targetPoint" />
          </mxGeometry>
        </mxCell>
        <mxCell id="5UwkUlyVJq9PyRfIacwS-189" value="" style="ellipse;whiteSpace=wrap;html=1;aspect=fixed;" vertex="1" parent="1">
          <mxGeometry x="170" y="-33.1" width="10" height="10" as="geometry" />
        </mxCell>
        <mxCell id="5UwkUlyVJq9PyRfIacwS-190" value="number" style="text;html=1;align=center;verticalAlign=middle;resizable=0;points=[];autosize=1;strokeColor=none;fillColor=none;" vertex="1" parent="1">
          <mxGeometry x="115" y="-43.1" width="60" height="30" as="geometry" />
        </mxCell>
        <mxCell id="5UwkUlyVJq9PyRfIacwS-191" value="" style="endArrow=none;html=1;rounded=0;entryX=0.083;entryY=1.007;entryDx=0;entryDy=0;exitX=1;exitY=0.5;exitDx=0;exitDy=0;entryPerimeter=0;" edge="1" parent="1" target="5UwkUlyVJq9PyRfIacwS-164">
          <mxGeometry width="50" height="50" relative="1" as="geometry">
            <mxPoint x="180" y="-28.1" as="sourcePoint" />
            <mxPoint x="200" y="-28.1" as="targetPoint" />
            <Array as="points">
              <mxPoint x="210" y="-28" />
            </Array>
          </mxGeometry>
        </mxCell>
        <mxCell id="5UwkUlyVJq9PyRfIacwS-193" value="" style="ellipse;whiteSpace=wrap;html=1;aspect=fixed;" vertex="1" parent="1">
          <mxGeometry x="170" y="-13.100000000000001" width="10" height="10" as="geometry" />
        </mxCell>
        <mxCell id="5UwkUlyVJq9PyRfIacwS-194" value="unit" style="text;html=1;align=center;verticalAlign=middle;resizable=0;points=[];autosize=1;strokeColor=none;fillColor=none;" vertex="1" parent="1">
          <mxGeometry x="135" y="-23.1" width="40" height="30" as="geometry" />
        </mxCell>
        <mxCell id="5UwkUlyVJq9PyRfIacwS-195" value="" style="endArrow=none;html=1;rounded=0;exitX=1;exitY=0.5;exitDx=0;exitDy=0;entryX=0.167;entryY=0.997;entryDx=0;entryDy=0;entryPerimeter=0;" edge="1" parent="1" target="5UwkUlyVJq9PyRfIacwS-164">
          <mxGeometry width="50" height="50" relative="1" as="geometry">
            <mxPoint x="180" y="-8.100000000000001" as="sourcePoint" />
            <mxPoint x="220" y="-8" as="targetPoint" />
            <Array as="points">
              <mxPoint x="220" y="-8" />
            </Array>
          </mxGeometry>
        </mxCell>
        <mxCell id="5UwkUlyVJq9PyRfIacwS-197" value="IS SENT" style="shape=rhombus;perimeter=rhombusPerimeter;whiteSpace=wrap;html=1;align=center;" vertex="1" parent="1">
          <mxGeometry x="360" y="-103.10000000000002" width="120" height="60" as="geometry" />
        </mxCell>
        <mxCell id="5UwkUlyVJq9PyRfIacwS-198" value="" style="endArrow=none;html=1;rounded=0;entryX=0;entryY=0.5;entryDx=0;entryDy=0;" edge="1" parent="1" target="5UwkUlyVJq9PyRfIacwS-197">
          <mxGeometry width="50" height="50" relative="1" as="geometry">
            <mxPoint x="320" y="-73.10000000000002" as="sourcePoint" />
            <mxPoint x="370" y="-123.10000000000002" as="targetPoint" />
          </mxGeometry>
        </mxCell>
        <mxCell id="5UwkUlyVJq9PyRfIacwS-201" value="(0, n)" style="edgeLabel;html=1;align=center;verticalAlign=middle;resizable=0;points=[];" vertex="1" connectable="0" parent="5UwkUlyVJq9PyRfIacwS-198">
          <mxGeometry x="-0.3545" relative="1" as="geometry">
            <mxPoint x="7" as="offset" />
          </mxGeometry>
        </mxCell>
        <mxCell id="5UwkUlyVJq9PyRfIacwS-199" value="" style="endArrow=none;html=1;rounded=0;entryX=0.5;entryY=1;entryDx=0;entryDy=0;" edge="1" parent="1" target="5UwkUlyVJq9PyRfIacwS-72">
          <mxGeometry width="50" height="50" relative="1" as="geometry">
            <mxPoint x="420" y="-103.10000000000002" as="sourcePoint" />
            <mxPoint x="470" y="-153.10000000000002" as="targetPoint" />
            <Array as="points">
              <mxPoint x="420" y="-160" />
              <mxPoint x="60" y="-160" />
              <mxPoint x="60" y="440" />
              <mxPoint x="260" y="440" />
            </Array>
          </mxGeometry>
        </mxCell>
        <mxCell id="5UwkUlyVJq9PyRfIacwS-200" value="(1, 1)" style="edgeLabel;html=1;align=center;verticalAlign=middle;resizable=0;points=[];" vertex="1" connectable="0" parent="5UwkUlyVJq9PyRfIacwS-199">
          <mxGeometry x="0.7908" y="-2" relative="1" as="geometry">
            <mxPoint x="242" y="-570" as="offset" />
          </mxGeometry>
        </mxCell>
        <mxCell id="5UwkUlyVJq9PyRfIacwS-203" value="" style="endArrow=none;html=1;rounded=0;entryX=0;entryY=0.5;entryDx=0;entryDy=0;exitX=1;exitY=0.5;exitDx=0;exitDy=0;" edge="1" parent="1" source="5UwkUlyVJq9PyRfIacwS-72" target="5UwkUlyVJq9PyRfIacwS-74">
          <mxGeometry width="50" height="50" relative="1" as="geometry">
            <mxPoint x="320" y="365" as="sourcePoint" />
            <mxPoint x="370" y="315" as="targetPoint" />
          </mxGeometry>
        </mxCell>
        <mxCell id="5UwkUlyVJq9PyRfIacwS-204" value="(0,n)" style="edgeLabel;html=1;align=center;verticalAlign=middle;resizable=0;points=[];" vertex="1" connectable="0" parent="5UwkUlyVJq9PyRfIacwS-203">
          <mxGeometry x="-0.0218" relative="1" as="geometry">
            <mxPoint as="offset" />
          </mxGeometry>
        </mxCell>
      </root>
    </mxGraphModel>
  </diagram>
</mxfile>
